HIERARCHY
ROOT Hips
{
	OFFSET 0.053599 88.859886 3.107447
	CHANNELS 6 Xposition Yposition Zposition Zrotation Yrotation Xrotation 
	JOINT Spine
	{
		OFFSET -0.000000 8.814246 -2.080107
		CHANNELS 3 Zrotation Yrotation Xrotation
		JOINT Spine1
		{
			OFFSET 0.000000 8.844141 0.000000
			CHANNELS 3 Zrotation Yrotation Xrotation
			JOINT Spine2
			{
				OFFSET -0.000000 11.682268 0.000000
				CHANNELS 3 Zrotation Yrotation Xrotation
				JOINT Spine3
				{
					OFFSET 0.000000 11.746700 0.000000
					CHANNELS 3 Zrotation Yrotation Xrotation
					JOINT Neck
					{
						OFFSET -0.000000 17.658264 -0.000000
						CHANNELS 3 Zrotation Yrotation Xrotation
						JOINT Neck1
						{
							OFFSET -0.000000 5.101515 -0.000000
							CHANNELS 3 Zrotation Yrotation Xrotation
							JOINT Head
							{
								OFFSET 0.000000 5.101515 0.000000
								CHANNELS 3 Zrotation Yrotation Xrotation
								JOINT HeadEnd
								{
									OFFSET 0.000000 11.655085 0.000000
									CHANNELS 3 Zrotation Yrotation Xrotation
									End Site
									{
										OFFSET 0.000000 0.000000 0.000000
									}
								}
							}
						}
					}
					JOINT RightShoulder
					{
						OFFSET -2.625389 11.175210 0.000000
						CHANNELS 3 Zrotation Yrotation Xrotation
						JOINT RightArm
						{
							OFFSET -0.000000 10.434715 -0.000000
							CHANNELS 3 Zrotation Yrotation Xrotation
							JOINT RightForeArm
							{
								OFFSET -0.000000 29.628420 0.000000
								CHANNELS 3 Zrotation Yrotation Xrotation
								JOINT RightHand
								{
									OFFSET -0.000000 22.857611 0.000000
									CHANNELS 3 Zrotation Yrotation Xrotation
									JOINT RightHandThumb1
									{
										OFFSET -2.867323 3.959563 2.944291
										CHANNELS 3 Zrotation Yrotation Xrotation
										JOINT RightHandThumb2
										{
											OFFSET 0.000000 3.350399 0.000000
											CHANNELS 3 Zrotation Yrotation Xrotation
											JOINT RightHandThumb3
											{
												OFFSET 0.000000 3.756509 -0.000000
												CHANNELS 3 Zrotation Yrotation Xrotation
												JOINT RightHandThumb4
												{
													OFFSET 0.000000 3.147345 0.000000
													CHANNELS 3 Zrotation Yrotation Xrotation
													End Site
													{
														OFFSET 0.000000 0.000000 0.000000
													}
												}
											}
										}
									}
									JOINT RightHandIndex1
									{
										OFFSET -0.086752 10.030893 2.345280
										CHANNELS 3 Zrotation Yrotation Xrotation
										JOINT RightHandIndex2
										{
											OFFSET -0.000000 4.061090 0.000000
											CHANNELS 3 Zrotation Yrotation Xrotation
											JOINT RightHandIndex3
											{
												OFFSET -0.000000 3.248873 0.000000
												CHANNELS 3 Zrotation Yrotation Xrotation
												JOINT RightHandIndex4
												{
													OFFSET 0.000000 2.639709 -0.000000
													CHANNELS 3 Zrotation Yrotation Xrotation
													End Site
													{
														OFFSET 0.000000 0.000000 0.000000
													}
												}
											}
										}
									}
									JOINT RightHandMiddle1
									{
										OFFSET 0.104102 9.502952 0.006768
										CHANNELS 3 Zrotation Yrotation Xrotation
										JOINT RightHandMiddle2
										{
											OFFSET 0.000000 4.568727 0.000000
											CHANNELS 3 Zrotation Yrotation Xrotation
											JOINT RightHandMiddle3
											{
												OFFSET 0.000000 3.654981 -0.000000
												CHANNELS 3 Zrotation Yrotation Xrotation
												JOINT RightHandMiddle4
												{
													OFFSET -0.000000 2.741236 -0.000000
													CHANNELS 3 Zrotation Yrotation Xrotation
													End Site
													{
														OFFSET 0.000000 0.000000 0.000000
													}
												}
											}
										}
									}
									JOINT RightHandRing1
									{
										OFFSET 0.086752 8.921708 -2.267442
										CHANNELS 3 Zrotation Yrotation Xrotation
										JOINT RightHandRing2
										{
											OFFSET -0.000000 4.061090 0.000000
											CHANNELS 3 Zrotation Yrotation Xrotation
											JOINT RightHandRing3
											{
												OFFSET 0.000000 3.654981 -0.000000
												CHANNELS 3 Zrotation Yrotation Xrotation
												JOINT RightHandRing4
												{
													OFFSET 0.000000 2.741236 -0.000000
													CHANNELS 3 Zrotation Yrotation Xrotation
													End Site
													{
														OFFSET 0.000000 0.000000 0.000000
													}
												}
											}
										}
									}
									JOINT RightHandPinky1
									{
										OFFSET -0.173504 7.976997 -4.467199
										CHANNELS 3 Zrotation Yrotation Xrotation
										JOINT RightHandPinky2
										{
											OFFSET 0.000000 3.350399 -0.000000
											CHANNELS 3 Zrotation Yrotation Xrotation
											JOINT RightHandPinky3
											{
												OFFSET -0.000000 2.842763 0.000000
												CHANNELS 3 Zrotation Yrotation Xrotation
												JOINT RightHandPinky4
												{
													OFFSET -0.000000 2.639709 0.000000
													CHANNELS 3 Zrotation Yrotation Xrotation
													End Site
													{
														OFFSET 0.000000 0.000000 0.000000
													}
												}
											}
										}
									}
									JOINT RightForeArmEnd
									{
										OFFSET 0.000000 0.000000 0.000000
										CHANNELS 3 Zrotation Yrotation Xrotation
										End Site
										{
											OFFSET 0.000000 0.000000 0.000000
										}
									}
								}
								JOINT RightArmEnd
								{
									OFFSET 0.000000 0.000000 0.000000
									CHANNELS 3 Zrotation Yrotation Xrotation
									End Site
									{
										OFFSET 0.000000 0.000000 0.000000
									}
								}
							}
						}
					}
					JOINT LeftShoulder
					{
						OFFSET 2.625389 11.175210 0.000000
						CHANNELS 3 Zrotation Yrotation Xrotation
						JOINT LeftArm
						{
							OFFSET 0.000000 10.813635 -0.000000
							CHANNELS 3 Zrotation Yrotation Xrotation
							JOINT LeftForeArm
							{
								OFFSET 0.000000 28.724781 0.000000
								CHANNELS 3 Zrotation Yrotation Xrotation
								JOINT LeftHand
								{
									OFFSET 0.644384 25.716167 -0.328871
									CHANNELS 3 Zrotation Yrotation Xrotation
									JOINT LeftHandThumb1
									{
										OFFSET 2.867323 3.959563 2.944291
										CHANNELS 3 Zrotation Yrotation Xrotation
										JOINT LeftHandThumb2
										{
											OFFSET 0.000000 3.350399 0.000000
											CHANNELS 3 Zrotation Yrotation Xrotation
											JOINT LeftHandThumb3
											{
												OFFSET -0.000000 3.756509 0.000000
												CHANNELS 3 Zrotation Yrotation Xrotation
												JOINT LeftHandThumb4
												{
													OFFSET -0.000000 3.100000 0.000000
													CHANNELS 3 Zrotation Yrotation Xrotation
													End Site
													{
														OFFSET 0.000000 0.000000 0.000000
													}
												}
											}
										}
									}
									JOINT LeftHandIndex1
									{
										OFFSET 0.086752 10.030893 2.345280
										CHANNELS 3 Zrotation Yrotation Xrotation
										JOINT LeftHandIndex2
										{
											OFFSET -0.000000 4.061090 -0.000000
											CHANNELS 3 Zrotation Yrotation Xrotation
											JOINT LeftHandIndex3
											{
												OFFSET 0.000000 3.248873 -0.000000
												CHANNELS 3 Zrotation Yrotation Xrotation
												JOINT LeftHandIndex4
												{
													OFFSET 0.000000 2.639709 -0.000000
													CHANNELS 3 Zrotation Yrotation Xrotation
													End Site
													{
														OFFSET 0.000000 0.000000 0.000000
													}
												}
											}
										}
									}
									JOINT LeftHandMiddle1
									{
										OFFSET -0.104102 9.502952 0.006768
										CHANNELS 3 Zrotation Yrotation Xrotation
										JOINT LeftHandMiddle2
										{
											OFFSET -0.000000 4.568727 -0.000000
											CHANNELS 3 Zrotation Yrotation Xrotation
											JOINT LeftHandMiddle3
											{
												OFFSET 0.000000 3.654981 0.000000
												CHANNELS 3 Zrotation Yrotation Xrotation
												JOINT LeftHandMiddle4
												{
													OFFSET 0.000000 2.741236 -0.000000
													CHANNELS 3 Zrotation Yrotation Xrotation
													End Site
													{
														OFFSET 0.000000 0.000000 0.000000
													}
												}
											}
										}
									}
									JOINT LeftHandRing1
									{
										OFFSET -0.086752 8.921708 -2.267442
										CHANNELS 3 Zrotation Yrotation Xrotation
										JOINT LeftHandRing2
										{
											OFFSET 0.000000 4.061090 0.000000
											CHANNELS 3 Zrotation Yrotation Xrotation
											JOINT LeftHandRing3
											{
												OFFSET 0.000000 3.654981 0.000000
												CHANNELS 3 Zrotation Yrotation Xrotation
												JOINT LeftHandRing4
												{
													OFFSET 0.000000 2.741236 0.000000
													CHANNELS 3 Zrotation Yrotation Xrotation
													End Site
													{
														OFFSET 0.000000 0.000000 0.000000
													}
												}
											}
										}
									}
									JOINT LeftHandPinky1
									{
										OFFSET 0.173504 7.976997 -4.467199
										CHANNELS 3 Zrotation Yrotation Xrotation
										JOINT LeftHandPinky2
										{
											OFFSET -0.000000 3.350399 -0.000000
											CHANNELS 3 Zrotation Yrotation Xrotation
											JOINT LeftHandPinky3
											{
												OFFSET 0.000000 2.842763 0.000000
												CHANNELS 3 Zrotation Yrotation Xrotation
												JOINT LeftHandPinky4
												{
													OFFSET -0.000000 2.639709 -0.000000
													CHANNELS 3 Zrotation Yrotation Xrotation
													End Site
													{
														OFFSET 0.000000 0.000000 0.000000
													}
												}
											}
										}
									}
									JOINT LeftForeArmEnd
									{
										OFFSET 0.000000 0.000000 0.000000
										CHANNELS 3 Zrotation Yrotation Xrotation
										End Site
										{
											OFFSET 0.000000 0.000000 0.000000
										}
									}
								}
								JOINT LeftArmEnd
								{
									OFFSET 0.000000 0.000000 0.000000
									CHANNELS 3 Zrotation Yrotation Xrotation
									End Site
									{
										OFFSET 0.000000 0.000000 0.000000
									}
								}
							}
						}
					}
				}
			}
		}
	}
	JOINT RightUpLeg
	{
		OFFSET -11.289943 0.000000 0.000000
		CHANNELS 3 Zrotation Yrotation Xrotation
		JOINT RightLeg
		{
			OFFSET 0.000000 -38.200325 0.000000
			CHANNELS 3 Zrotation Yrotation Xrotation
			JOINT RightFoot
			{
				OFFSET -0.000000 -39.900856 -0.000000
				CHANNELS 3 Zrotation Yrotation Xrotation
				JOINT RightToeBase
				{
					OFFSET 0.000000 0.000000 15.261641
					CHANNELS 3 Zrotation Yrotation Xrotation
					JOINT RightToeBaseEnd
					{
						OFFSET 0.000000 0.000000 7.370709
						CHANNELS 3 Zrotation Yrotation Xrotation
						End Site
						{
							OFFSET 0.000000 0.000000 0.000000
						}
					}
				}
				JOINT RightLegEnd
				{
					OFFSET 0.000000 0.000000 0.000000
					CHANNELS 3 Zrotation Yrotation Xrotation
					End Site
					{
						OFFSET 0.000000 0.000000 0.000000
					}
				}
			}
			JOINT RightUpLegEnd
			{
				OFFSET 0.000000 0.000000 0.000000
				CHANNELS 3 Zrotation Yrotation Xrotation
				End Site
				{
					OFFSET 0.000000 0.000000 0.000000
				}
			}
		}
	}
	JOINT LeftUpLeg
	{
		OFFSET 11.315661 -0.000000 0.000000
		CHANNELS 3 Zrotation Yrotation Xrotation
		JOINT LeftLeg
		{
			OFFSET -0.000000 -38.200325 -0.000000
			CHANNELS 3 Zrotation Yrotation Xrotation
			JOINT LeftFoot
			{
				OFFSET 0.000000 -39.900856 -0.000000
				CHANNELS 3 Zrotation Yrotation Xrotation
				JOINT LeftToeBase
				{
					OFFSET -0.000000 -0.000000 15.261641
					CHANNELS 3 Zrotation Yrotation Xrotation
					JOINT LeftToeBaseEnd
					{
						OFFSET 0.000000 -0.000000 7.539996
						CHANNELS 3 Zrotation Yrotation Xrotation
						End Site
						{
							OFFSET 0.000000 0.000000 0.000000
						}
					}
				}
				JOINT LeftLegEnd
				{
					OFFSET 0.000000 0.000000 0.000000
					CHANNELS 3 Zrotation Yrotation Xrotation
					End Site
					{
						OFFSET 0.000000 0.000000 0.000000
					}
				}
			}
			JOINT LeftUpLegEnd
			{
				OFFSET 0.000000 0.000000 0.000000
				CHANNELS 3 Zrotation Yrotation Xrotation
				End Site
				{
					OFFSET 0.000000 0.000000 0.000000
				}
			}
		}
	}
}
MOTION
Frames: 4
Frame Time: 0.016667
0.308592 88.689117 3.700669 0.118124 -1.019858 -12.044887 0.865430 0.219202 7.427882 -0.268847 0.310410 2.434480 -0.647278 0.688642 6.351055 -1.576067 0.598989 4.979523 1.393119 -0.351677 6.396891 0.266280 -0.288225 -2.591054 -0.035741 -0.960415 -20.484800 0.000000 0.000000 0.000000 92.486214 -0.066223 10.563050 66.714119 -25.825010 4.515640 0.255494 17.892437 31.737843 1.605554 13.407507 -6.726931 19.511900 30.209454 62.431957 -8.127149 -11.593170 -19.501009 -6.031128 -7.584172 -13.497838 0.000000 0.000000 0.000000 9.562587 -10.573763 3.465939 8.693719 0.409202 1.234666 8.403872 -0.024654 1.221971 0.000000 0.000000 0.000000 9.356566 -5.059296 1.552064 7.617596 0.465725 0.468152 8.052731 -0.033969 0.412109 0.000000 0.000000 0.000000 11.250278 2.540581 0.255794 8.728843 -0.936302 -0.752341 8.776874 0.034130 -0.544785 0.000000 0.000000 0.000000 11.140136 10.930804 -1.914957 9.252335 -1.767121 -2.219463 9.048573 0.174563 -1.855045 0.000000 0.000000 0.000000 0.000000 0.000000 0.000000 0.000000 0.000000 0.000000 -89.758347 0.142240 4.860052 -72.672363 11.842623 -7.675203 0.015553 -15.930850 71.244385 -6.040766 -13.756801 -9.771945 -19.239956 -30.275612 62.520073 8.033490 11.076429 -18.857712 5.879478 7.398764 -13.277668 0.000000 0.000000 0.000000 -13.657890 -6.285452 6.747850 -9.397877 0.434017 -0.907096 -9.332458 -0.046859 -0.875374 0.000000 0.000000 0.000000 -14.329219 -0.986471 3.087045 -9.483226 0.461579 -0.458817 -9.722489 -0.034143 -0.368133 0.000000 0.000000 0.000000 -19.181694 7.564162 -1.106516 -12.540192 -0.907633 0.824212 -12.539523 0.066611 0.648345 0.000000 0.000000 0.000000 -23.402088 16.489376 -6.065715 -14.738260 -1.603579 2.922793 -14.478395 0.372282 2.531654 0.000000 0.000000 0.000000 0.000000 0.000000 0.000000 0.000000 0.000000 0.000000 -1.412320 -9.466649 16.972803 -0.082436 -0.760299 4.627464 -2.668027 -6.984974 16.691977 -0.889866 0.889052 -18.322481 0.000000 0.000000 0.000000 0.000000 0.000000 0.000000 0.000000 0.000000 0.000000 -1.586928 -5.955269 10.781344 0.073103 0.327141 10.926075 3.833489 -1.923189 15.947145 0.178495 -0.420773 -20.551146 0.000000 0.000000 0.000000 0.000000 0.000000 0.000000 0.000000 0.000000 0.000000 
0.296438 88.687866 3.713062 0.103528 -0.987421 -12.068730 0.872762 0.218649 7.444441 -0.268882 0.311935 2.439167 -0.662974 0.714243 6.364636 -1.582936 0.610221 4.970153 1.339869 -0.365854 6.444694 0.256425 -0.315383 -2.566046 -0.035362 -0.964911 -20.472538 0.000000 0.000000 0.000000 92.517906 -0.086077 10.606419 66.687592 -25.909391 4.495356 0.262643 17.801083 31.589008 1.919148 13.660222 -6.803502 19.482456 30.223019 62.471405 -8.080622 -11.524022 -19.390574 -5.997679 -7.544304 -13.422337 0.000000 0.000000 0.000000 9.343598 -10.544772 3.426890 8.648868 0.414066 1.210301 8.350700 -0.019576 1.199843 0.000000 0.000000 0.000000 9.142744 -5.023486 1.480897 7.563737 0.467132 0.458578 8.003992 -0.032824 0.403472 0.000000 0.000000 0.000000 11.023638 2.587849 0.140324 8.667914 -0.938938 -0.738638 8.718863 0.031849 -0.533884 0.000000 0.000000 0.000000 10.927790 10.975453 -2.080096 9.199780 -1.775055 -2.176696 8.997255 0.166808 -1.821986 0.000000 0.000000 0.000000 0.000000 0.000000 0.000000 0.000000 0.000000 0.000000 -89.778267 0.137300 4.892993 -72.627945 12.029350 -7.503389 0.055456 -15.761426 71.583984 -6.369821 -13.487797 -9.738500 -18.994776 -30.348915 62.757858 7.781229 10.590255 -18.125278 5.676012 7.084325 -12.765813 0.000000 0.000000 0.000000 -11.943894 -6.595544 7.369490 -8.336498 0.441276 -0.886841 -8.273156 -0.038611 -0.857947 0.000000 0.000000 0.000000 -12.637280 -1.284074 3.448579 -8.426515 0.465255 -0.448744 -8.665376 -0.031155 -0.360334 0.000000 0.000000 0.000000 -17.422647 7.286273 -1.104044 -11.423265 -0.914153 0.806676 -11.429279 0.062301 0.634692 0.000000 0.000000 0.000000 -21.751270 16.295906 -6.417711 -13.688236 -1.625997 2.866584 -13.437758 0.354217 2.487097 0.000000 0.000000 0.000000 0.000000 0.000000 0.000000 0.000000 0.000000 0.000000 -1.400233 -9.479158 17.038019 -0.081608 -0.760731 4.595881 -2.657536 -6.990669 16.666973 -0.886913 0.891347 -18.304188 0.000000 0.000000 0.000000 0.000000 0.000000 0.000000 0.000000 0.000000 0.000000 -1.549596 -5.953209 10.789489 0.074565 0.329355 10.965848 3.814335 -1.942008 15.936567 0.181200 -0.423918 -20.552755 0.000000 0.000000 0.000000 0.000000 0.000000 0.000000 0.000000 0.000000 0.000000 
0.284351 88.685783 3.726603 0.091634 -0.953969 -12.093911 0.880926 0.218488 7.461816 -0.271497 0.314070 2.440763 -0.674741 0.734717 6.377005 -1.592138 0.619721 4.964025 1.275796 -0.368151 6.482790 0.243545 -0.334423 -2.543866 -0.037614 -0.969132 -20.463215 0.000000 0.000000 0.000000 92.546425 -0.106274 10.650760 66.658890 -25.994278 4.476703 0.267574 17.702932 31.458059 2.213755 13.896057 -6.854273 19.449682 30.236952 62.512840 -8.032351 -11.448527 -19.272118 -5.962317 -7.500442 -13.341234 0.000000 0.000000 0.000000 9.110168 -10.511285 3.410255 8.586147 0.418593 1.185020 8.280655 -0.014889 1.176823 0.000000 0.000000 0.000000 8.918400 -4.984860 1.422886 7.493602 0.468455 0.448526 7.938478 -0.031758 0.394385 0.000000 0.000000 0.000000 10.789525 2.635376 0.026851 8.589898 -0.941461 -0.724143 8.644094 0.029609 -0.522074 0.000000 0.000000 0.000000 10.710404 11.018761 -2.256317 9.133450 -1.782625 -2.130369 8.932158 0.159302 -1.785803 0.000000 0.000000 0.000000 0.000000 0.000000 0.000000 0.000000 0.000000 0.000000 -89.794334 0.132832 4.934116 -72.596451 12.230845 -7.330329 0.095031 -15.599008 71.899811 -6.660182 -13.238196 -9.687930 -18.753382 -30.422760 62.993507 7.527328 10.113346 -17.401417 5.473185 6.775379 -12.259349 0.000000 0.000000 0.000000 -10.254490 -6.903714 8.017265 -7.321945 0.446734 -0.870692 -7.259705 -0.032116 -0.843743 0.000000 0.000000 0.000000 -10.964642 -1.580536 3.837077 -7.415803 0.468165 -0.439947 -7.653310 -0.028739 -0.353517 0.000000 0.000000 0.000000 -15.676867 7.006634 -1.074046 -10.347985 -0.919638 0.790239 -10.361822 0.058591 0.621614 0.000000 0.000000 0.000000 -20.106031 16.095293 -6.739613 -12.674219 -1.645611 2.812549 -12.434875 0.338243 2.444060 0.000000 0.000000 0.000000 0.000000 0.000000 0.000000 0.000000 0.000000 0.000000 -1.390154 -9.488297 17.100512 -0.080801 -0.761153 4.568231 -2.647233 -7.004730 16.641417 -0.885191 0.892934 -18.285532 0.000000 0.000000 0.000000 0.000000 0.000000 0.000000 0.000000 0.000000 0.000000 -1.515078 -5.951182 10.801282 0.076007 0.331993 11.000130 3.792905 -1.959037 15.926884 0.183874 -0.427837 -20.552067 0.000000 0.000000 0.000000 0.000000 0.000000 0.000000 0.000000 0.000000 0.000000 
0.272433 88.682838 3.741256 0.083088 -0.921055 -12.119560 0.888935 0.218779 7.479550 -0.276890 0.316685 2.439137 -0.683208 0.748748 6.388638 -1.603353 0.626678 4.960115 1.200842 -0.357571 6.512162 0.228394 -0.343543 -2.524410 -0.042760 -0.973516 -20.455414 0.000000 0.000000 0.000000 92.569054 -0.125623 10.694729 66.632591 -26.079912 4.459500 0.270209 17.602819 31.353029 2.477486 14.106942 -6.875764 19.415548 30.251043 62.554913 -7.983560 -11.370635 -19.150732 -5.926253 -7.455061 -13.258107 0.000000 0.000000 0.000000 8.867609 -10.475514 3.418105 8.511653 0.422970 1.159839 8.199985 -0.010449 1.153801 0.000000 0.000000 0.000000 8.689685 -4.945043 1.381602 7.412466 0.469821 0.438414 7.861535 -0.030706 0.385216 0.000000 0.000000 0.000000 10.555409 2.682338 -0.079109 8.498830 -0.944095 -0.709557 8.556112 0.027336 -0.509921 0.000000 0.000000 0.000000 10.495227 11.060849 -2.434221 9.055363 -1.790310 -2.082780 8.855303 0.151821 -1.748334 0.000000 0.000000 0.000000 0.000000 0.000000 0.000000 0.000000 0.000000 0.000000 -89.805885 0.129004 4.981824 -72.577110 12.445251 -7.161623 0.133118 -15.443842 72.179131 -6.896376 -12.992887 -9.628743 -18.520174 -30.495543 63.222775 7.277232 9.653779 -16.699568 5.274910 6.477157 -11.767596 0.000000 0.000000 0.000000 -8.617351 -7.204092 8.671269 -6.381588 0.450800 -0.858357 -6.319802 -0.027005 -0.832485 0.000000 0.000000 0.000000 -9.339389 -1.870234 4.239349 -6.476547 0.470445 -0.432412 -6.712107 -0.026778 -0.347678 0.000000 0.000000 0.000000 -13.974232 6.730405 -1.020735 -9.338138 -0.924334 0.774968 -9.360531 0.055306 0.609235 0.000000 0.000000 0.000000 -18.494600 15.890827 -7.026200 -11.715082 -1.663024 2.760620 -11.488227 0.323886 2.402476 0.000000 0.000000 0.000000 0.000000 0.000000 0.000000 0.000000 0.000000 0.000000 -1.382555 -9.493443 17.159290 -0.080029 -0.761552 4.544125 -2.637577 -7.025123 16.615534 -0.884660 0.893942 -18.266054 0.000000 0.000000 0.000000 0.000000 0.000000 0.000000 0.000000 0.000000 0.000000 -1.484092 -5.949061 10.816788 0.077406 0.334891 11.029718 3.769296 -1.972307 15.917857 0.186516 -0.432370 -20.549788 0.000000 0.000000 0.000000 0.000000 0.000000 0.000000 0.000000 0.000000 0.000000 
